<?xml version="1.0" encoding="UTF-8"?>
<svg xmlns="http://www.w3.org/2000/svg" viewBox="0 0 24 24" fill="#000000">
  <path d="M12 11c-1.1 0-2 .9-2 2s.9 2 2 2 2-.9 2-2-.9-2-2-2zm6 2c0-3.31-2.69-6-6-6-1.01 0-1.97.25-2.8.7l1.46 1.46C10.96 9.31 11.43 9 12 9c2.21 0 4 1.79 4 4s-1.79 4-4 4c-.57 0-1.11-.12-1.6-.33l1.41 1.41C13.04 18.66 14.56 19 16 19c3.31 0 6-2.69 6-6zm-6-6c-3.87 0-7 3.13-7 7 0 .79.13 1.55.36 2.26l1.12-1.12c-.15-.37-.24-.78-.24-1.14 0-2.21 1.79-4 4-4 .85 0 1.63.27 2.27.72l1.11-1.11C14.91 7.25 13.5 7 12 7zm-6 6c0-3.31 2.69-6 6-6 1.56 0 2.98.6 4.04 1.58l1.15-1.15C14.4 6.92 13.25 6.5 12 6.5c-4.14 0-7.5 3.36-7.5 7.5 0 1.05.22 2.05.61 2.96l1.08-1.08c-.28-.57-.44-1.21-.44-1.88z"/>
</svg>
